<svg width="192" height="82" viewBox="0 0 192 82" fill="none" xmlns="http://www.w3.org/2000/svg">
<g clip-path="url(#clip0)">
<path d="M8.44578 7.19545C5.74623 9.54063 3.59269 12.4417 2.1347 15.6971C0.676707 18.9526 -0.0507809 22.4844 0.0027542 26.0474C0.0027542 33.6976 3.13952 41.6196 9.32496 49.5872C14.5497 55.9386 20.3014 61.8432 26.5194 67.2389C29.379 69.862 31.9596 72.1786 34.2007 74.1139C34.6615 74.5127 35.2282 74.7711 35.8329 74.8583C36.4377 74.9454 37.0548 74.8576 37.6107 74.6054C38.1665 74.3531 38.6375 73.9471 38.9673 73.4359C39.297 72.9246 39.4717 72.3298 39.4702 71.7225V57.4418C39.47 57.0011 39.3775 56.5653 39.1986 56.1621C39.0198 55.7589 38.7585 55.3971 38.4314 55.0996L38.0441 54.7476C32.5622 50.0265 27.4861 44.8592 22.8687 39.2994C18.9977 34.3123 17.0357 29.8543 17.0357 26.0456C16.9816 24.8504 17.2114 23.6594 17.7066 22.5689C18.2018 21.4785 18.9485 20.5192 19.8861 19.7689C20.9583 18.8055 22.2112 18.0618 23.5731 17.5804C24.935 17.099 26.379 16.8893 27.8225 16.9634C31.7853 16.9634 32.7562 18.0761 33.5344 19.4168C33.8847 20.02 34.4255 20.4913 35.0729 20.7577C35.7204 21.024 36.4382 21.0704 37.1149 20.8897C37.7916 20.709 38.3893 20.3113 38.8152 19.7583C39.2411 19.2053 39.4714 18.5281 39.4702 17.8317V4.58701C39.4683 3.94526 39.2714 3.31906 38.9052 2.79045C38.5391 2.26185 38.0208 1.85552 37.4182 1.62469C34.3456 0.508124 31.0939 -0.0426266 27.8225 -0.000567756C20.6756 -0.151367 13.7418 2.42364 8.44578 7.19545Z" fill="#005988"/>
<path d="M36.2259 2.58685C35.764 2.87061 35.3831 3.26757 35.1199 3.73966C34.8566 4.21175 34.7199 4.74314 34.7227 5.28285V72.7066C34.7224 73.1654 34.8223 73.6188 35.0156 74.0355C35.2089 74.4522 35.491 74.8222 35.8423 75.1199C41.6735 80.0595 43.8595 81.2488 44.9993 81.7121C45.4832 81.909 46.0083 81.9843 46.5284 81.9316C47.0485 81.8788 47.5475 81.6995 47.9813 81.4096C48.4151 81.1197 48.7704 80.728 49.0157 80.2691C49.261 79.8103 49.3889 79.2985 49.3879 78.779V26.5316C49.387 26.2797 49.3568 26.0288 49.2979 25.7838C49.3561 25.5448 49.3862 25.3 49.3879 25.0541V13.7995C49.3871 13.3049 49.2709 12.8173 49.0483 12.3749C47.0034 8.08209 43.5817 4.58591 39.3205 2.43545C38.8839 2.22346 38.4041 2.11424 37.9182 2.11624C37.3229 2.11436 36.7388 2.27732 36.2314 2.58685" fill="#DB4814"/>
<path d="M54.8063 1.96799C50.7057 3.73622 47.2794 6.75798 45.0253 10.5941C44.7245 11.0895 44.5658 11.6572 44.5664 12.2358V78.8314C44.5678 79.3752 44.7092 79.9096 44.9771 80.3837C45.2451 80.8578 45.6307 81.256 46.0972 81.5402C46.5643 81.823 47.0971 81.981 47.6438 81.9989C48.1905 82.0168 48.7326 81.894 49.2174 81.6423C52.2852 79.8143 55.1578 77.6807 57.7908 75.2744L58.1193 74.9953C60.4393 73.0344 63.3191 70.4606 66.6743 67.3451C67.6599 66.4331 68.629 65.5392 69.6385 64.5889C69.9525 64.2921 70.2026 63.935 70.3736 63.5393C70.5446 63.1436 70.6329 62.7176 70.6334 62.2869V47.3294C70.6359 46.6961 70.447 46.0765 70.0911 45.5512C69.7352 45.0258 69.2287 44.6188 68.6373 44.3829C68.0459 44.147 67.3968 44.0931 66.7741 44.2282C66.1515 44.3633 65.5841 44.6811 65.1454 45.1405C63.4017 46.9646 61.4213 48.9364 59.2426 51.0195V4.87923C59.2432 4.35514 59.113 3.83907 58.8637 3.37727C58.6143 2.91546 58.2536 2.52235 57.8138 2.23313C57.374 1.94392 56.8689 1.76764 56.3437 1.7201C55.8185 1.67255 55.2896 1.75522 54.8045 1.96069" fill="#429B86"/>
<path d="M56.6123 1.33673C55.9774 1.54619 55.4251 1.94926 55.0339 2.48862C54.6428 3.02798 54.4327 3.67616 54.4336 4.341V54.7588C54.432 55.3815 54.6156 55.9908 54.9612 56.5103C55.3068 57.0297 55.7991 57.4362 56.3763 57.6785C56.9535 57.9209 57.5899 57.9885 58.2056 57.8727C58.8213 57.757 59.3889 57.4631 59.8371 57.0279L65.8464 51.1908V60.7819C65.8445 61.4037 66.0272 62.0123 66.3717 62.5314C66.7161 63.0505 67.2069 63.4572 67.7828 63.7004C68.3567 63.9438 68.9901 64.0138 69.6038 63.9015C70.2175 63.7893 70.7843 63.4998 71.2334 63.0693C79.7223 54.9412 85.2158 48.566 88.0277 43.5808C91.204 38.2657 92.947 32.2261 93.088 26.0458C93.1409 22.4824 92.4132 18.9502 90.9553 15.6942C89.4974 12.4383 87.3441 9.53651 84.645 7.19023C79.3467 2.41909 72.4108 -0.154026 65.2627 -0.000326525C62.3256 -0.0201899 59.4046 0.431303 56.6123 1.33673Z" fill="#F9C400"/>
<path d="M190.664 53.4313H187.986C187.81 53.4291 187.635 53.462 187.471 53.5282C187.308 53.5944 187.159 53.6924 187.035 53.8166C186.91 53.9407 186.812 54.0884 186.746 54.2509C186.68 54.4135 186.647 54.5875 186.65 54.7628V60.2533C186.647 60.4285 186.68 60.6024 186.746 60.7647C186.813 60.927 186.911 61.0745 187.036 61.1984C187.16 61.3224 187.308 61.4203 187.472 61.4864C187.635 61.5524 187.81 61.5853 187.986 61.5831H190.664C190.84 61.5856 191.016 61.5529 191.179 61.4869C191.343 61.421 191.491 61.3231 191.616 61.1992C191.741 61.0753 191.84 60.9277 191.906 60.7653C191.973 60.6028 192.006 60.4287 192.004 60.2533V54.7628C192.006 54.5873 191.973 54.413 191.907 54.2504C191.84 54.0877 191.742 53.9399 191.617 53.8158C191.492 53.6917 191.343 53.5937 191.18 53.5276C191.016 53.4616 190.841 53.4288 190.664 53.4313ZM174.341 38.3807H165.715V30.0629C165.715 28.926 166.169 27.8357 166.978 27.0318C167.787 26.2279 168.884 25.7763 170.028 25.7763C171.172 25.7763 172.269 26.2279 173.078 27.0318C173.887 27.8357 174.341 28.926 174.341 30.0629V38.3807ZM170.074 20.5047C167.513 20.5017 165.055 21.5057 163.236 23.2975C161.417 25.0893 160.386 27.5233 160.366 30.0684V60.2533C160.364 60.4286 160.397 60.6025 160.464 60.7648C160.53 60.9272 160.629 61.0746 160.753 61.1985C160.878 61.3225 161.026 61.4203 161.19 61.4864C161.353 61.5524 161.528 61.5853 161.704 61.5831H164.382C164.559 61.5853 164.734 61.5524 164.897 61.4864C165.06 61.4203 165.209 61.3225 165.333 61.1985C165.458 61.0746 165.556 60.9272 165.623 60.7648C165.689 60.6025 165.722 60.4286 165.72 60.2533V43.7034H174.347V60.2533C174.345 60.4286 174.378 60.6025 174.444 60.7648C174.511 60.9272 174.609 61.0746 174.734 61.1985C174.859 61.3225 175.007 61.4203 175.17 61.4864C175.334 61.5524 175.509 61.5853 175.685 61.5831H178.363C178.539 61.5853 178.714 61.5524 178.877 61.4864C179.041 61.4203 179.189 61.3225 179.314 61.1985C179.439 61.0746 179.537 60.9272 179.603 60.7648C179.67 60.6025 179.703 60.4286 179.701 60.2533V30.0629C179.686 27.5312 178.668 25.1072 176.867 23.3169C175.066 21.5265 172.627 20.514 170.079 20.4992L170.074 20.5047ZM152.925 56.2622H145.729V21.7469C145.719 21.397 145.575 21.064 145.325 20.8167C145.076 20.5693 144.741 20.4263 144.389 20.4171H141.713C141.536 20.4147 141.361 20.4474 141.197 20.5133C141.034 20.5792 140.885 20.6771 140.76 20.801C140.636 20.925 140.537 21.0725 140.47 21.235C140.404 21.3974 140.371 21.5715 140.373 21.7469V58.9218C140.378 59.6261 140.661 60.3003 141.162 60.7983C141.664 61.2964 142.342 61.5783 143.051 61.5831H152.925C153.277 61.5739 153.612 61.4308 153.861 61.1834C154.11 60.936 154.254 60.6031 154.263 60.2533V57.5938C154.265 57.4187 154.232 57.245 154.166 57.0829C154.099 56.9208 154.001 56.7736 153.876 56.6498C153.751 56.5261 153.603 56.4284 153.44 56.3625C153.276 56.2965 153.102 56.2637 152.925 56.2659V56.2622ZM133.429 21.7469C133.42 21.3968 133.276 21.0636 133.027 20.8162C132.777 20.5687 132.442 20.4259 132.089 20.4171H129.412C129.235 20.4149 129.06 20.4478 128.897 20.5139C128.734 20.5799 128.585 20.6778 128.46 20.8017C128.336 20.9256 128.237 21.0731 128.171 21.2354C128.104 21.3977 128.071 21.5716 128.074 21.7469V60.2533C128.071 60.4286 128.104 60.6025 128.171 60.7648C128.237 60.9272 128.336 61.0746 128.46 61.1985C128.585 61.3225 128.734 61.4203 128.897 61.4864C129.06 61.5524 129.235 61.5853 129.412 61.5831H132.089C132.266 61.5856 132.441 61.5529 132.605 61.4869C132.768 61.421 132.917 61.3231 133.042 61.1992C133.167 61.0753 133.265 60.9277 133.332 60.7653C133.398 60.6028 133.432 60.4287 133.429 60.2533V21.7469ZM117.949 34.1415H120.627C120.804 34.1435 120.979 34.1104 121.142 34.0441C121.305 33.9779 121.454 33.8799 121.578 33.7558C121.703 33.6317 121.801 33.4841 121.868 33.3217C121.934 33.1593 121.967 32.9853 121.965 32.81V29.9808C121.965 27.4444 120.951 25.0118 119.147 23.2183C117.342 21.4247 114.894 20.4171 112.342 20.4171C109.79 20.4171 107.342 21.4247 105.537 23.2183C103.733 25.0118 102.719 27.4444 102.719 29.9808V52.0176C102.719 54.554 103.733 56.9866 105.537 58.7801C107.342 60.5737 109.79 61.5813 112.342 61.5813C114.894 61.5813 117.342 60.5737 119.147 58.7801C120.951 56.9866 121.965 54.554 121.965 52.0176V48.9422C121.967 48.7669 121.934 48.593 121.868 48.4307C121.801 48.2684 121.703 48.1209 121.578 47.997C121.454 47.8731 121.305 47.7752 121.142 47.7092C120.978 47.6431 120.803 47.6102 120.627 47.6124H117.949C117.773 47.6102 117.598 47.6431 117.435 47.7092C117.271 47.7752 117.123 47.8731 116.998 47.997C116.873 48.1209 116.775 48.2684 116.709 48.4307C116.642 48.593 116.609 48.7669 116.611 48.9422V52.0176C116.611 53.1424 116.162 54.2211 115.361 55.0164C114.561 55.8118 113.476 56.2586 112.344 56.2586C111.212 56.2586 110.127 55.8118 109.326 55.0164C108.526 54.2211 108.076 53.1424 108.076 52.0176V29.9808C108.076 28.856 108.526 27.7773 109.326 26.982C110.127 26.1866 111.212 25.7398 112.344 25.7398C113.476 25.7398 114.561 26.1866 115.361 26.982C116.162 27.7773 116.611 28.856 116.611 29.9808V32.81C116.609 32.9853 116.642 33.1593 116.709 33.3217C116.775 33.4841 116.873 33.6317 116.998 33.7558C117.123 33.8799 117.271 33.9779 117.434 34.0441C117.598 34.1104 117.773 34.1435 117.949 34.1415Z" fill="#191919"/>
</g>
<defs>
<clipPath id="clip0">
<rect width="192" height="82" fill="white"/>
</clipPath>
</defs>
</svg>
